# Blender v2.93.1 OBJ File: ''
# www.blender.org
mtllib Circle_Outline.mtl
o Circle
v 0.000000 0.000000 -1.000000
v -0.195090 0.000000 -0.980785
v -0.382683 0.000000 -0.923880
v -0.555570 0.000000 -0.831470
v -0.707107 0.000000 -0.707107
v -0.831470 0.000000 -0.555570
v -0.923880 0.000000 -0.382683
v -0.980785 0.000000 -0.195090
v -1.000000 0.000000 0.000000
v -0.980785 0.000000 0.195090
v -0.923880 0.000000 0.382683
v -0.831470 0.000000 0.555570
v -0.707107 0.000000 0.707107
v -0.555570 0.000000 0.831470
v -0.382683 0.000000 0.923880
v -0.195090 0.000000 0.980785
v 0.000000 0.000000 1.000000
v 0.195090 0.000000 0.980785
v 0.382683 0.000000 0.923880
v 0.555570 0.000000 0.831470
v 0.707107 0.000000 0.707107
v 0.831469 0.000000 0.555570
v 0.923880 0.000000 0.382684
v 0.980785 0.000000 0.195090
v 1.000000 0.000000 -0.000000
v 0.980785 0.000000 -0.195090
v 0.923879 0.000000 -0.382684
v 0.831470 0.000000 -0.555570
v 0.707107 0.000000 -0.707107
v 0.555570 0.000000 -0.831470
v 0.382683 0.000000 -0.923880
v 0.195090 0.000000 -0.980785
v 0.483571 0.000000 0.323112
v 0.411243 0.000000 0.411243
v -0.537315 0.000000 -0.222563
v -0.570411 0.000000 -0.113462
v -0.323112 0.000000 -0.483571
v -0.411243 0.000000 -0.411243
v -0.483571 0.000000 -0.323112
v 0.323112 0.000000 0.483571
v 0.222563 0.000000 0.537315
v 0.113462 0.000000 0.570411
v -0.411243 0.000000 0.411243
v -0.323112 0.000000 0.483571
v -0.483571 0.000000 0.323112
v -0.222563 0.000000 0.537315
v -0.000000 0.000000 0.581586
v -0.113462 0.000000 0.570411
v -0.581586 0.000000 -0.000000
v -0.537315 0.000000 0.222563
v -0.570411 0.000000 0.113462
v -0.113462 0.000000 -0.570411
v -0.222563 0.000000 -0.537315
v 0.570411 0.000000 0.113462
v 0.537315 0.000000 0.222563
v -0.000000 0.000000 -0.581586
v 0.411243 0.000000 -0.411243
v 0.113462 0.000000 -0.570411
v 0.537315 0.000000 -0.222563
v 0.581586 0.000000 0.000000
v 0.570411 0.000000 -0.113462
v 0.483571 0.000000 -0.323112
v 0.222563 0.000000 -0.537315
v 0.323112 0.000000 -0.483571
vt 0.000000 0.000000
vt 0.000000 0.000000
vt 0.000000 0.000000
vt 0.000000 0.000000
vt 0.000000 0.000000
vt 0.000000 0.000000
vt 0.000000 0.000000
vt 0.000000 0.000000
vt 0.000000 0.000000
vt 0.000000 0.000000
vt 0.000000 0.000000
vt 0.000000 0.000000
vt 0.000000 0.000000
vt 0.000000 0.000000
vt 0.000000 0.000000
vt 0.000000 0.000000
vt 0.000000 0.000000
vt 0.000000 0.000000
vt 0.000000 0.000000
vt 0.000000 0.000000
vt 0.000000 0.000000
vt 0.000000 0.000000
vt 0.000000 0.000000
vt 0.000000 0.000000
vt 0.000000 0.000000
vt 0.000000 0.000000
vt 0.000000 0.000000
vt 0.000000 0.000000
vt 0.000000 0.000000
vt 0.000000 0.000000
vt 0.000000 0.000000
vt 0.000000 0.000000
vt 0.000000 0.000000
vt 0.000000 0.000000
vt 0.000000 0.000000
vt 0.000000 0.000000
vt 0.000000 0.000000
vt 0.000000 0.000000
vt 0.000000 0.000000
vt 0.000000 0.000000
vt 0.000000 0.000000
vt 0.000000 0.000000
vt 0.000000 0.000000
vt 0.000000 0.000000
vt 0.000000 0.000000
vt 0.000000 0.000000
vt 0.000000 0.000000
vt 0.000000 0.000000
vt 0.000000 0.000000
vt 0.000000 0.000000
vt 0.000000 0.000000
vt 0.000000 0.000000
vt 0.000000 0.000000
vt 0.000000 0.000000
vt 0.000000 0.000000
vt 0.000000 0.000000
vt 0.000000 0.000000
vt 0.000000 0.000000
vt 0.000000 0.000000
vt 0.000000 0.000000
vt 0.000000 0.000000
vt 0.000000 0.000000
vt 0.000000 0.000000
vt 0.000000 0.000000
vn 0.0000 1.0000 0.0000
usemtl None
s off
f 52/1/1 2/2/1 3/3/1 4/4/1 5/5/1 6/6/1 7/7/1 8/8/1 9/9/1 10/10/1 11/11/1 12/12/1 13/13/1 14/14/1 15/15/1 16/16/1 17/17/1 18/18/1 19/19/1 41/20/1 42/21/1 47/22/1 48/23/1 46/24/1 44/25/1 43/26/1 45/27/1 50/28/1 51/29/1 49/30/1 36/31/1 35/32/1 39/33/1 38/34/1 37/35/1 53/36/1
f 41/20/1 19/19/1 20/37/1 21/38/1 22/39/1 23/40/1 24/41/1 25/42/1 26/43/1 27/44/1 28/45/1 29/46/1 30/47/1 31/48/1 32/49/1 1/50/1 2/2/1 52/1/1 56/51/1 58/52/1 63/53/1 64/54/1 57/55/1 62/56/1 59/57/1 61/58/1 60/59/1 54/60/1 55/61/1 33/62/1 34/63/1 40/64/1
