# Blender v2.93.1 OBJ File: ''
# www.blender.org
mtllib Test_PressV1.mtl
o Cylinder
v 0.000000 -0.015361 -0.227981
v 0.000000 0.015361 -0.227981
v 0.044477 -0.015361 -0.223600
v 0.044477 0.015361 -0.223600
v 0.087245 -0.015361 -0.210627
v 0.087245 0.015361 -0.210627
v 0.126659 -0.015361 -0.189559
v 0.126659 0.015361 -0.189559
v 0.161207 -0.015361 -0.161207
v 0.161207 0.015361 -0.161207
v 0.189559 -0.015361 -0.126659
v 0.189559 0.015361 -0.126659
v 0.210627 -0.015361 -0.087245
v 0.210627 0.015361 -0.087245
v 0.223600 -0.015361 -0.044477
v 0.223600 0.015361 -0.044477
v 0.227981 -0.015361 0.000000
v 0.227981 0.015361 0.000000
v 0.223600 -0.015361 0.044477
v 0.223600 0.015361 0.044477
v 0.210627 -0.015361 0.087245
v 0.210627 0.015361 0.087245
v 0.189559 -0.015361 0.126659
v 0.189559 0.015361 0.126659
v 0.161207 -0.015361 0.161207
v 0.161207 0.015361 0.161207
v 0.126659 -0.015361 0.189559
v 0.126659 0.015361 0.189559
v 0.087245 -0.015361 0.210627
v 0.087245 0.015361 0.210627
v 0.044477 -0.015361 0.223600
v 0.044477 0.015361 0.223600
v -0.000000 -0.015361 0.227981
v -0.000000 0.015361 0.227981
v -0.044477 -0.015361 0.223600
v -0.044477 0.015361 0.223600
v -0.087245 -0.015361 0.210627
v -0.087245 0.015361 0.210627
v -0.126659 -0.015361 0.189559
v -0.126659 0.015361 0.189559
v -0.161207 -0.015361 0.161207
v -0.161207 0.015361 0.161207
v -0.189559 -0.015361 0.126659
v -0.189559 0.015361 0.126659
v -0.210627 -0.015361 0.087245
v -0.210627 0.015361 0.087245
v -0.223600 -0.015361 0.044477
v -0.223600 0.015361 0.044477
v -0.227981 -0.015361 -0.000000
v -0.227981 0.015361 -0.000000
v -0.223600 -0.015361 -0.044477
v -0.223600 0.015361 -0.044477
v -0.210627 -0.015361 -0.087245
v -0.210627 0.015361 -0.087245
v -0.189559 -0.015361 -0.126659
v -0.189559 0.015361 -0.126659
v -0.161207 -0.015361 -0.161207
v -0.161207 0.015361 -0.161207
v -0.126659 -0.015361 -0.189559
v -0.126659 0.015361 -0.189559
v -0.087245 -0.015361 -0.210627
v -0.087245 0.015361 -0.210627
v -0.044477 -0.015361 -0.223600
v -0.044477 0.015361 -0.223600
v 0.000000 0.007548 -0.481958
v 0.000000 0.054616 -0.481958
v 0.094025 0.007548 -0.472697
v 0.094025 0.054616 -0.472697
v 0.184437 0.007548 -0.445271
v 0.184437 0.054616 -0.445271
v 0.267761 0.007548 -0.400733
v 0.267761 0.054616 -0.400733
v 0.340796 0.007548 -0.340796
v 0.340796 0.054616 -0.340796
v 0.400733 0.007548 -0.267761
v 0.400733 0.054616 -0.267761
v 0.445271 0.007548 -0.184437
v 0.445271 0.054616 -0.184437
v 0.472697 0.007548 -0.094025
v 0.472697 0.054616 -0.094025
v 0.481958 0.007548 0.000000
v 0.481958 0.054616 0.000000
v 0.472697 0.007548 0.094025
v 0.472697 0.054616 0.094025
v 0.445271 0.007548 0.184437
v 0.445271 0.054616 0.184437
v 0.400733 0.007548 0.267761
v 0.400733 0.054616 0.267761
v 0.340796 0.007548 0.340796
v 0.340796 0.054616 0.340796
v 0.267761 0.007548 0.400733
v 0.267761 0.054616 0.400733
v 0.184437 0.007548 0.445271
v 0.184437 0.054616 0.445271
v 0.094025 0.007548 0.472697
v 0.094025 0.054616 0.472697
v -0.000000 0.007548 0.481958
v -0.000000 0.054616 0.481958
v -0.094025 0.007548 0.472697
v -0.094025 0.054616 0.472697
v -0.184437 0.007548 0.445271
v -0.184437 0.054616 0.445271
v -0.267761 0.007548 0.400733
v -0.267761 0.054616 0.400733
v -0.340796 0.007548 0.340796
v -0.340796 0.054616 0.340796
v -0.400733 0.007548 0.267761
v -0.400733 0.054616 0.267761
v -0.445271 0.007548 0.184437
v -0.445271 0.054616 0.184437
v -0.472697 0.007548 0.094025
v -0.472697 0.054616 0.094025
v -0.481958 0.007548 -0.000000
v -0.481958 0.054616 -0.000000
v -0.472697 0.007548 -0.094025
v -0.472697 0.054616 -0.094025
v -0.445271 0.007548 -0.184437
v -0.445271 0.054616 -0.184437
v -0.400733 0.007548 -0.267761
v -0.400733 0.054616 -0.267761
v -0.340796 0.007548 -0.340796
v -0.340796 0.054616 -0.340796
v -0.267761 0.007548 -0.400733
v -0.267761 0.054616 -0.400733
v -0.184437 0.007548 -0.445271
v -0.184437 0.054616 -0.445271
v -0.094025 0.007548 -0.472697
v -0.094025 0.054616 -0.472697
v 0.396831 0.007548 -0.078935
v 0.396831 0.054616 -0.078935
v -0.404605 0.054616 -0.000000
v -0.396831 0.054616 0.078935
v -0.373806 0.054616 0.154836
v -0.396831 0.054616 -0.078935
v 0.404605 0.007548 0.000000
v 0.404605 0.054616 0.000000
v -0.336417 0.054616 0.224787
v 0.396831 0.007548 0.078935
v 0.396831 0.054616 0.078935
v 0.373806 0.054616 0.154836
v 0.373806 0.007548 0.154836
v 0.373806 0.054616 -0.154836
v 0.078935 0.054616 0.396831
v 0.336417 0.007548 0.224786
v 0.336417 0.054616 0.224786
v -0.000000 0.054616 0.404605
v -0.078934 0.054616 0.396831
v 0.154836 0.054616 0.373806
v 0.286099 0.007548 0.286099
v 0.286099 0.054616 0.286099
v -0.154836 0.054616 0.373806
v 0.224786 0.007548 0.336417
v 0.224786 0.054616 0.336417
v 0.336417 0.054616 -0.224786
v 0.154836 0.007548 0.373806
v -0.373806 0.054616 -0.154836
v -0.336417 0.054616 -0.224786
v -0.224787 0.054616 0.336417
v 0.286099 0.054616 -0.286099
v -0.286099 0.054616 0.286099
v 0.078935 0.007548 0.396831
v -0.286099 0.054616 -0.286099
v -0.224787 0.054616 -0.336417
v -0.078934 0.054616 -0.396831
v 0.078935 0.054616 -0.396831
v 0.000000 0.054616 -0.404605
v 0.224786 0.054616 -0.336417
v 0.154836 0.054616 -0.373806
v -0.000000 0.007548 0.404605
v -0.154836 0.054616 -0.373806
v -0.078934 0.007548 0.396831
v -0.404605 0.007548 -0.000000
v -0.396831 0.007548 0.078935
v -0.373806 0.007548 0.154836
v -0.396831 0.007548 -0.078935
v -0.154836 0.007548 0.373806
v -0.336417 0.007548 0.224787
v -0.224787 0.007548 0.336417
v -0.286099 0.007548 0.286099
v 0.373806 0.007548 -0.154836
v 0.336417 0.007548 -0.224786
v -0.373806 0.007548 -0.154836
v -0.336417 0.007548 -0.224786
v 0.286099 0.007548 -0.286099
v -0.286099 0.007548 -0.286099
v -0.224787 0.007548 -0.336417
v -0.078934 0.007548 -0.396831
v 0.078935 0.007548 -0.396831
v 0.000000 0.007548 -0.404605
v 0.224786 0.007548 -0.336417
v 0.154836 0.007548 -0.373806
v -0.154836 0.007548 -0.373806
vt 1.000000 0.500000
vt 1.000000 1.000000
vt 0.968750 1.000000
vt 0.968750 0.500000
vt 0.937500 1.000000
vt 0.937500 0.500000
vt 0.906250 1.000000
vt 0.906250 0.500000
vt 0.875000 1.000000
vt 0.875000 0.500000
vt 0.843750 1.000000
vt 0.843750 0.500000
vt 0.812500 1.000000
vt 0.812500 0.500000
vt 0.781250 1.000000
vt 0.781250 0.500000
vt 0.750000 1.000000
vt 0.750000 0.500000
vt 0.718750 1.000000
vt 0.718750 0.500000
vt 0.687500 1.000000
vt 0.687500 0.500000
vt 0.656250 1.000000
vt 0.656250 0.500000
vt 0.625000 1.000000
vt 0.625000 0.500000
vt 0.593750 1.000000
vt 0.593750 0.500000
vt 0.562500 1.000000
vt 0.562500 0.500000
vt 0.531250 1.000000
vt 0.531250 0.500000
vt 0.500000 1.000000
vt 0.500000 0.500000
vt 0.468750 1.000000
vt 0.468750 0.500000
vt 0.437500 1.000000
vt 0.437500 0.500000
vt 0.406250 1.000000
vt 0.406250 0.500000
vt 0.375000 1.000000
vt 0.375000 0.500000
vt 0.343750 1.000000
vt 0.343750 0.500000
vt 0.312500 1.000000
vt 0.312500 0.500000
vt 0.281250 1.000000
vt 0.281250 0.500000
vt 0.250000 1.000000
vt 0.250000 0.500000
vt 0.218750 1.000000
vt 0.218750 0.500000
vt 0.187500 1.000000
vt 0.187500 0.500000
vt 0.156250 1.000000
vt 0.156250 0.500000
vt 0.125000 1.000000
vt 0.125000 0.500000
vt 0.093750 1.000000
vt 0.093750 0.500000
vt 0.062500 1.000000
vt 0.062500 0.500000
vt 0.296822 0.485388
vt 0.250000 0.490000
vt 0.203178 0.485388
vt 0.158156 0.471731
vt 0.116663 0.449553
vt 0.080294 0.419706
vt 0.050447 0.383337
vt 0.028269 0.341844
vt 0.014612 0.296822
vt 0.010000 0.250000
vt 0.014612 0.203178
vt 0.028269 0.158156
vt 0.050447 0.116663
vt 0.080294 0.080294
vt 0.116663 0.050447
vt 0.158156 0.028269
vt 0.203178 0.014612
vt 0.250000 0.010000
vt 0.296822 0.014612
vt 0.341844 0.028269
vt 0.383337 0.050447
vt 0.419706 0.080294
vt 0.449553 0.116663
vt 0.471731 0.158156
vt 0.485388 0.203178
vt 0.490000 0.250000
vt 0.485388 0.296822
vt 0.471731 0.341844
vt 0.449553 0.383337
vt 0.419706 0.419706
vt 0.383337 0.449553
vt 0.341844 0.471731
vt 0.031250 1.000000
vt 0.031250 0.500000
vt 0.000000 1.000000
vt 0.000000 0.500000
vt 0.750000 0.490000
vt 0.796822 0.485388
vt 0.841844 0.471731
vt 0.883337 0.449553
vt 0.919706 0.419706
vt 0.949553 0.383337
vt 0.971731 0.341844
vt 0.985388 0.296822
vt 0.990000 0.250000
vt 0.985388 0.203178
vt 0.971731 0.158156
vt 0.949553 0.116663
vt 0.919706 0.080294
vt 0.883337 0.050447
vt 0.841844 0.028269
vt 0.796822 0.014612
vt 0.750000 0.010000
vt 0.703178 0.014612
vt 0.658156 0.028269
vt 0.616663 0.050447
vt 0.580294 0.080294
vt 0.550447 0.116663
vt 0.528269 0.158156
vt 0.514612 0.203178
vt 0.510000 0.250000
vt 0.514612 0.296822
vt 0.528269 0.341844
vt 0.550447 0.383337
vt 0.580294 0.419706
vt 0.616663 0.449553
vt 0.658156 0.471731
vt 0.703178 0.485388
vt 1.000000 0.500000
vt 1.000000 1.000000
vt 0.968750 1.000000
vt 0.968750 0.500000
vt 0.937500 1.000000
vt 0.937500 0.500000
vt 0.906250 1.000000
vt 0.906250 0.500000
vt 0.875000 1.000000
vt 0.875000 0.500000
vt 0.843750 1.000000
vt 0.843750 0.500000
vt 0.812500 1.000000
vt 0.812500 0.500000
vt 0.781250 1.000000
vt 0.781250 0.500000
vt 0.750000 1.000000
vt 0.750000 0.500000
vt 0.718750 1.000000
vt 0.718750 0.500000
vt 0.687500 1.000000
vt 0.687500 0.500000
vt 0.656250 1.000000
vt 0.656250 0.500000
vt 0.625000 1.000000
vt 0.625000 0.500000
vt 0.593750 1.000000
vt 0.593750 0.500000
vt 0.562500 1.000000
vt 0.562500 0.500000
vt 0.531250 1.000000
vt 0.531250 0.500000
vt 0.500000 1.000000
vt 0.500000 0.500000
vt 0.468750 1.000000
vt 0.468750 0.500000
vt 0.437500 1.000000
vt 0.437500 0.500000
vt 0.406250 1.000000
vt 0.406250 0.500000
vt 0.375000 1.000000
vt 0.375000 0.500000
vt 0.343750 1.000000
vt 0.343750 0.500000
vt 0.312500 1.000000
vt 0.312500 0.500000
vt 0.281250 1.000000
vt 0.281250 0.500000
vt 0.250000 1.000000
vt 0.250000 0.500000
vt 0.218750 1.000000
vt 0.218750 0.500000
vt 0.187500 1.000000
vt 0.187500 0.500000
vt 0.156250 1.000000
vt 0.156250 0.500000
vt 0.125000 1.000000
vt 0.125000 0.500000
vt 0.093750 1.000000
vt 0.093750 0.500000
vt 0.062500 1.000000
vt 0.062500 0.500000
vt 0.050447 0.383337
vt 0.028269 0.341844
vt 0.014612 0.296822
vt 0.010000 0.250000
vt 0.014612 0.203178
vt 0.028269 0.158156
vt 0.050447 0.116663
vt 0.080294 0.080294
vt 0.116663 0.050447
vt 0.138063 0.082475
vt 0.107532 0.107532
vt 0.082475 0.138063
vt 0.063856 0.172897
vt 0.052391 0.210693
vt 0.048519 0.250000
vt 0.052391 0.289307
vt 0.063856 0.327103
vt 0.082475 0.361937
vt 0.158156 0.028269
vt 0.203178 0.014612
vt 0.250000 0.010000
vt 0.296822 0.014612
vt 0.341844 0.028269
vt 0.383337 0.050447
vt 0.419706 0.080294
vt 0.449553 0.116663
vt 0.471731 0.158156
vt 0.485388 0.203178
vt 0.490000 0.250000
vt 0.485388 0.296822
vt 0.471731 0.341844
vt 0.449553 0.383337
vt 0.419706 0.419706
vt 0.383337 0.449553
vt 0.341844 0.471731
vt 0.296822 0.485388
vt 0.250000 0.490000
vt 0.203178 0.485388
vt 0.158156 0.471731
vt 0.116663 0.449553
vt 0.080294 0.419706
vt 0.107532 0.392468
vt 0.138063 0.417525
vt 0.172897 0.436144
vt 0.210693 0.447609
vt 0.250000 0.451481
vt 0.289307 0.447609
vt 0.327103 0.436144
vt 0.361937 0.417525
vt 0.392468 0.392468
vt 0.417525 0.361937
vt 0.436144 0.327103
vt 0.447609 0.289307
vt 0.451481 0.250000
vt 0.447609 0.210693
vt 0.436144 0.172897
vt 0.417525 0.138063
vt 0.392468 0.107532
vt 0.361937 0.082475
vt 0.327103 0.063856
vt 0.289307 0.052391
vt 0.250000 0.048519
vt 0.210693 0.052391
vt 0.172897 0.063856
vt 0.031250 1.000000
vt 0.031250 0.500000
vt 0.000000 1.000000
vt 0.000000 0.500000
vt 0.582475 0.361937
vt 0.550447 0.383337
vt 0.580294 0.419706
vt 0.616663 0.449553
vt 0.658156 0.471731
vt 0.703178 0.485388
vt 0.750000 0.490000
vt 0.796822 0.485388
vt 0.841844 0.471731
vt 0.883337 0.449553
vt 0.919706 0.419706
vt 0.949553 0.383337
vt 0.971731 0.341844
vt 0.985388 0.296822
vt 0.990000 0.250000
vt 0.985388 0.203178
vt 0.971731 0.158156
vt 0.949553 0.116663
vt 0.919706 0.080294
vt 0.883337 0.050447
vt 0.841844 0.028269
vt 0.796822 0.014612
vt 0.750000 0.010000
vt 0.703178 0.014612
vt 0.658156 0.028269
vt 0.616663 0.050447
vt 0.638063 0.082475
vt 0.672897 0.063856
vt 0.710693 0.052391
vt 0.750000 0.048519
vt 0.789307 0.052391
vt 0.827103 0.063856
vt 0.861936 0.082475
vt 0.892468 0.107532
vt 0.917525 0.138063
vt 0.936144 0.172897
vt 0.947609 0.210693
vt 0.951480 0.250000
vt 0.947609 0.289307
vt 0.936144 0.327103
vt 0.917525 0.361937
vt 0.892468 0.392468
vt 0.861937 0.417525
vt 0.827103 0.436144
vt 0.789307 0.447609
vt 0.750000 0.451481
vt 0.710693 0.447609
vt 0.672897 0.436144
vt 0.638063 0.417525
vt 0.607532 0.392468
vt 0.580294 0.080294
vt 0.550447 0.116663
vt 0.528269 0.158156
vt 0.514612 0.203178
vt 0.510000 0.250000
vt 0.514612 0.296822
vt 0.528269 0.341844
vt 0.563856 0.327103
vt 0.552391 0.289307
vt 0.548519 0.250000
vt 0.552391 0.210693
vt 0.563856 0.172897
vt 0.582475 0.138063
vt 0.607532 0.107532
vt 0.968750 0.652774
vt 0.968750 0.847226
vt 1.000000 0.847226
vt 1.000000 0.652774
vt 0.937500 0.652774
vt 0.937500 0.847226
vt 0.906250 0.652774
vt 0.906250 0.847226
vt 0.875000 0.652774
vt 0.875000 0.847226
vt 0.843750 0.847226
vt 0.843750 0.652774
vt 0.812500 0.847226
vt 0.812500 0.652774
vt 0.781250 0.652774
vt 0.781250 0.847226
vt 0.750000 0.847226
vt 0.750000 0.652774
vt 0.718750 0.847226
vt 0.718750 0.652774
vt 0.687500 0.847226
vt 0.687500 0.652774
vt 0.656250 0.652774
vt 0.656250 0.847226
vt 0.625000 0.847226
vt 0.625000 0.652774
vt 0.593750 0.847226
vt 0.593750 0.652774
vt 0.562500 0.847226
vt 0.562500 0.652774
vt 0.531250 0.847226
vt 0.531250 0.652774
vt 0.500000 0.847226
vt 0.500000 0.652774
vt 0.468750 0.847226
vt 0.468750 0.652774
vt 0.437500 0.847226
vt 0.437500 0.652774
vt 0.406250 0.847226
vt 0.406250 0.652774
vt 0.375000 0.847226
vt 0.375000 0.652774
vt 0.343750 0.652774
vt 0.343750 0.847226
vt 0.312500 0.652774
vt 0.312500 0.847226
vt 0.281250 0.652774
vt 0.281250 0.847226
vt 0.250000 0.652774
vt 0.250000 0.847226
vt 0.218750 0.652774
vt 0.218750 0.847226
vt 0.187500 0.652774
vt 0.187500 0.847226
vt 0.156250 0.652774
vt 0.156250 0.847226
vt 0.125000 0.652774
vt 0.125000 0.847226
vt 0.093750 0.652774
vt 0.093750 0.847226
vt 0.062500 0.652774
vt 0.062500 0.847226
vt 0.031250 0.652774
vt 0.031250 0.847226
vt 0.000000 0.652774
vt 0.000000 0.847226
vn 0.0980 0.0000 -0.9952
vn 0.2903 0.0000 -0.9569
vn 0.4714 0.0000 -0.8819
vn 0.6344 0.0000 -0.7730
vn 0.7730 0.0000 -0.6344
vn 0.8819 0.0000 -0.4714
vn 0.9569 0.0000 -0.2903
vn 0.9952 0.0000 -0.0980
vn 0.9952 0.0000 0.0980
vn 0.9569 0.0000 0.2903
vn 0.8819 0.0000 0.4714
vn 0.7730 0.0000 0.6344
vn 0.6344 0.0000 0.7730
vn 0.4714 0.0000 0.8819
vn 0.2903 0.0000 0.9569
vn 0.0980 0.0000 0.9952
vn -0.0980 0.0000 0.9952
vn -0.2903 0.0000 0.9569
vn -0.4714 0.0000 0.8819
vn -0.6344 0.0000 0.7730
vn -0.7730 0.0000 0.6344
vn -0.8819 0.0000 0.4714
vn -0.9569 0.0000 0.2903
vn -0.9952 0.0000 0.0980
vn -0.9952 0.0000 -0.0980
vn -0.9569 0.0000 -0.2903
vn -0.8819 0.0000 -0.4714
vn -0.7730 0.0000 -0.6344
vn -0.6344 0.0000 -0.7730
vn -0.4714 0.0000 -0.8819
vn 0.0000 1.0000 -0.0000
vn -0.2903 0.0000 -0.9569
vn -0.0980 0.0000 -0.9952
vn 0.0000 -1.0000 0.0000
usemtl None
s off
f 1/1/1 2/2/1 4/3/1 3/4/1
f 3/4/2 4/3/2 6/5/2 5/6/2
f 5/6/3 6/5/3 8/7/3 7/8/3
f 7/8/4 8/7/4 10/9/4 9/10/4
f 9/10/5 10/9/5 12/11/5 11/12/5
f 11/12/6 12/11/6 14/13/6 13/14/6
f 13/14/7 14/13/7 16/15/7 15/16/7
f 15/16/8 16/15/8 18/17/8 17/18/8
f 17/18/9 18/17/9 20/19/9 19/20/9
f 19/20/10 20/19/10 22/21/10 21/22/10
f 21/22/11 22/21/11 24/23/11 23/24/11
f 23/24/12 24/23/12 26/25/12 25/26/12
f 25/26/13 26/25/13 28/27/13 27/28/13
f 27/28/14 28/27/14 30/29/14 29/30/14
f 29/30/15 30/29/15 32/31/15 31/32/15
f 31/32/16 32/31/16 34/33/16 33/34/16
f 33/34/17 34/33/17 36/35/17 35/36/17
f 35/36/18 36/35/18 38/37/18 37/38/18
f 37/38/19 38/37/19 40/39/19 39/40/19
f 39/40/20 40/39/20 42/41/20 41/42/20
f 41/42/21 42/41/21 44/43/21 43/44/21
f 43/44/22 44/43/22 46/45/22 45/46/22
f 45/46/23 46/45/23 48/47/23 47/48/23
f 47/48/24 48/47/24 50/49/24 49/50/24
f 49/50/25 50/49/25 52/51/25 51/52/25
f 51/52/26 52/51/26 54/53/26 53/54/26
f 53/54/27 54/53/27 56/55/27 55/56/27
f 55/56/28 56/55/28 58/57/28 57/58/28
f 57/58/29 58/57/29 60/59/29 59/60/29
f 59/60/30 60/59/30 62/61/30 61/62/30
f 4/63/31 2/64/31 64/65/31 62/66/31 60/67/31 58/68/31 56/69/31 54/70/31 52/71/31 50/72/31 48/73/31 46/74/31 44/75/31 42/76/31 40/77/31 38/78/31 36/79/31 34/80/31 32/81/31 30/82/31 28/83/31 26/84/31 24/85/31 22/86/31 20/87/31 18/88/31 16/89/31 14/90/31 12/91/31 10/92/31 8/93/31 6/94/31
f 61/62/32 62/61/32 64/95/32 63/96/32
f 63/96/33 64/95/33 2/97/33 1/98/33
f 1/99/34 3/100/34 5/101/34 7/102/34 9/103/34 11/104/34 13/105/34 15/106/34 17/107/34 19/108/34 21/109/34 23/110/34 25/111/34 27/112/34 29/113/34 31/114/34 33/115/34 35/116/34 37/117/34 39/118/34 41/119/34 43/120/34 45/121/34 47/122/34 49/123/34 51/124/34 53/125/34 55/126/34 57/127/34 59/128/34 61/129/34 63/130/34
f 65/131/1 66/132/1 68/133/1 67/134/1
f 67/134/2 68/133/2 70/135/2 69/136/2
f 69/136/3 70/135/3 72/137/3 71/138/3
f 71/138/4 72/137/4 74/139/4 73/140/4
f 73/140/5 74/139/5 76/141/5 75/142/5
f 75/142/6 76/141/6 78/143/6 77/144/6
f 77/144/7 78/143/7 80/145/7 79/146/7
f 79/146/8 80/145/8 82/147/8 81/148/8
f 81/148/9 82/147/9 84/149/9 83/150/9
f 83/150/10 84/149/10 86/151/10 85/152/10
f 85/152/11 86/151/11 88/153/11 87/154/11
f 87/154/12 88/153/12 90/155/12 89/156/12
f 89/156/13 90/155/13 92/157/13 91/158/13
f 91/158/14 92/157/14 94/159/14 93/160/14
f 93/160/15 94/159/15 96/161/15 95/162/15
f 95/162/16 96/161/16 98/163/16 97/164/16
f 97/164/17 98/163/17 100/165/17 99/166/17
f 99/166/18 100/165/18 102/167/18 101/168/18
f 101/168/19 102/167/19 104/169/19 103/170/19
f 103/170/20 104/169/20 106/171/20 105/172/20
f 105/172/21 106/171/21 108/173/21 107/174/21
f 107/174/22 108/173/22 110/175/22 109/176/22
f 109/176/23 110/175/23 112/177/23 111/178/23
f 111/178/24 112/177/24 114/179/24 113/180/24
f 113/180/25 114/179/25 116/181/25 115/182/25
f 115/182/26 116/181/26 118/183/26 117/184/26
f 117/184/27 118/183/27 120/185/27 119/186/27
f 119/186/28 120/185/28 122/187/28 121/188/28
f 121/188/29 122/187/29 124/189/29 123/190/29
f 123/190/30 124/189/30 126/191/30 125/192/30
f 120/193/31 118/194/31 116/195/31 114/196/31 112/197/31 110/198/31 108/199/31 106/200/31 104/201/31 158/202/31 160/203/31 137/204/31 133/205/31 132/206/31 131/207/31 134/208/31 156/209/31 157/210/31
f 158/202/31 104/201/31 102/211/31 100/212/31 98/213/31 96/214/31 94/215/31 92/216/31 90/217/31 88/218/31 86/219/31 84/220/31 82/221/31 80/222/31 78/223/31 76/224/31 74/225/31 72/226/31 70/227/31 68/228/31 66/229/31 128/230/31 126/231/31 124/232/31 122/233/31 120/193/31 157/210/31 162/234/31 163/235/31 170/236/31 164/237/31 166/238/31 165/239/31 168/240/31 167/241/31 159/242/31 154/243/31 142/244/31 130/245/31 136/246/31 139/247/31 140/248/31 145/249/31 150/250/31 153/251/31 148/252/31 143/253/31 146/254/31 147/255/31 151/256/31
f 125/192/32 126/191/32 128/257/32 127/258/32
f 127/258/33 128/257/33 66/259/33 65/260/33
f 183/261/34 119/262/34 121/263/34 123/264/34 125/265/34 127/266/34 65/267/34 67/268/34 69/269/34 71/270/34 73/271/34 75/272/34 77/273/34 79/274/34 81/275/34 83/276/34 85/277/34 87/278/34 89/279/34 91/280/34 93/281/34 95/282/34 97/283/34 99/284/34 101/285/34 103/286/34 178/287/34 176/288/34 171/289/34 169/290/34 161/291/34 155/292/34 152/293/34 149/294/34 144/295/34 141/296/34 138/297/34 135/298/34 129/299/34 180/300/34 181/301/34 184/302/34 190/303/34 191/304/34 188/305/34 189/306/34 187/307/34 192/308/34 186/309/34 185/310/34
f 178/287/34 103/286/34 105/311/34 107/312/34 109/313/34 111/314/34 113/315/34 115/316/34 117/317/34 119/262/34 183/261/34 182/318/34 175/319/34 172/320/34 173/321/34 174/322/34 177/323/34 179/324/34
f 188/325/17 165/326/17 166/327/17 189/328/17
f 191/329/18 168/330/18 165/326/18 188/325/18
f 190/331/19 167/332/19 168/330/19 191/329/19
f 184/333/20 159/334/20 167/332/20 190/331/20
f 154/335/21 159/334/21 184/333/21 181/336/21
f 142/337/22 154/335/22 181/336/22 180/338/22
f 129/339/23 130/340/23 142/337/23 180/338/23
f 136/341/24 130/340/24 129/339/24 135/342/24
f 139/343/25 136/341/25 135/342/25 138/344/25
f 140/345/26 139/343/26 138/344/26 141/346/26
f 144/347/27 145/348/27 140/345/27 141/346/27
f 150/349/28 145/348/28 144/347/28 149/350/28
f 153/351/29 150/349/29 149/350/29 152/352/29
f 148/353/30 153/351/30 152/352/30 155/354/30
f 143/355/32 148/353/32 155/354/32 161/356/32
f 146/357/33 143/355/33 161/356/33 169/358/33
f 147/359/1 146/357/1 169/358/1 171/360/1
f 151/361/2 147/359/2 171/360/2 176/362/2
f 158/363/3 151/361/3 176/362/3 178/364/3
f 160/365/4 158/363/4 178/364/4 179/366/4
f 177/367/5 137/368/5 160/365/5 179/366/5
f 174/369/6 133/370/6 137/368/6 177/367/6
f 173/371/7 132/372/7 133/370/7 174/369/7
f 172/373/8 131/374/8 132/372/8 173/371/8
f 175/375/9 134/376/9 131/374/9 172/373/9
f 182/377/10 156/378/10 134/376/10 175/375/10
f 183/379/11 157/380/11 156/378/11 182/377/11
f 185/381/12 162/382/12 157/380/12 183/379/12
f 186/383/13 163/384/13 162/382/13 185/381/13
f 192/385/14 170/386/14 163/384/14 186/383/14
f 187/387/15 164/388/15 170/386/15 192/385/15
f 189/389/16 166/390/16 164/388/16 187/387/16
