# Blender v2.93.1 OBJ File: ''
# www.blender.org
mtllib Test_Rotator.mtl
o Cone_Cone.001
v 0.000000 0.333108 0.857432
v -0.689085 -0.014233 0.644075
v 0.689086 -0.014233 0.644075
v -0.000000 -0.014233 -1.355925
vt 0.250000 0.490000
vt 0.250000 0.250000
vt 0.457846 0.130000
vt 0.750000 0.490000
vt 0.957846 0.130000
vt 0.542154 0.130000
vt 0.042154 0.130000
vn -0.4103 0.9009 -0.1414
vn -0.0000 -0.5234 0.8521
vn -0.0000 -1.0000 -0.0000
vn 0.4103 0.9009 -0.1414
usemtl None
s off
f 1/1/1 4/2/1 2/3/1
f 1/4/2 2/5/2 3/6/2
f 2/3/3 4/2/3 3/7/3
f 3/7/4 4/2/4 1/1/4
